<?xml version="1.0" encoding="UTF-8"?>
<svg id="Layer_1" data-name="Layer 1" xmlns="http://www.w3.org/2000/svg" version="1.1" viewBox="0 0 165 24">
  <defs>
    <style>
      .cls-1 {
        fill: #fff;
        stroke-width: 40px;
      }
    </style>
  </defs>
  <rect class="cls-1" x="19.6" y="28.2" width="62.9" height="35.3"/>
  <g>
    <path class="cls-1" d="M21.3,42.7v-11.2h4.1c1.3,0,2.2.2,2.9.7.7.5,1,1.1,1,1.9s-.2,1.1-.6,1.6c-.4.5-.9.8-1.6.9h0c.8.1,1.5.4,1.9.9.5.5.7,1.1.7,1.8,0,1-.4,1.8-1.1,2.4-.7.6-1.8.9-3,.9h-4.4ZM23.9,33.3v2.7h1.1c.5,0,.9-.1,1.2-.4.3-.3.5-.6.5-1,0-.8-.6-1.2-1.9-1.2h-1ZM23.9,37.9v3h1.4c.6,0,1.1-.1,1.4-.4.3-.3.5-.6.5-1.1s-.2-.8-.5-1.1c-.3-.3-.8-.4-1.4-.4h-1.4Z"/>
    <path class="cls-1" d="M35.2,31.5v2h-1v7.3h1v2h-4.5v-2h1v-7.3h-1v-2h4.5Z"/>
    <path class="cls-1" d="M47.1,42.7h-2.6l-4.7-7c-.3-.4-.5-.7-.6-.9h0c0,.4,0,1,0,1.8v6.2h-2.4v-11.2h2.8l4.5,6.8c.2.3.4.6.6.9h0c0-.3,0-.8,0-1.5v-6.2h2.4v11.2Z"/>
    <path class="cls-1" d="M59.7,42.7h-2.8l-.8-2.5h-4l-.8,2.5h-2.8l4.1-11.2h3l4,11.2ZM55.5,38.3l-1.2-3.8c0-.3-.2-.6-.2-1h0c0,.3,0,.7-.2,1l-1.2,3.8h2.9Z"/>
    <path class="cls-1" d="M70.6,42.7h-2.9l-1.8-2.9c-.1-.2-.3-.4-.4-.6-.1-.2-.2-.3-.4-.4s-.3-.2-.4-.3c-.1,0-.3,0-.4,0h-.7v4.3h-2.6v-11.2h4.1c2.8,0,4.1,1,4.1,3s0,.8-.2,1.1-.3.6-.5.9c-.2.3-.5.5-.8.7-.3.2-.7.3-1,.5h0c.2,0,.3.2.5.3.2.1.3.3.5.4s.3.3.4.5.3.4.4.5l2.1,3.3ZM63.6,33.4v3.1h1.1c.5,0,1-.2,1.3-.5.3-.3.5-.7.5-1.2,0-1-.6-1.5-1.8-1.5h-1.2Z"/>
    <path class="cls-1" d="M80.2,31.5l-3.7,7.2v4h-2.6v-3.9l-3.6-7.3h2.9l1.8,4.2c0,0,.1.4.3.9h0c0-.4.2-.7.2-.9l1.9-4.2h2.7Z"/>
    <path class="cls-1" d="M30.3,61.9v-11.2h4.1c1.3,0,2.2.2,2.9.7.7.5,1,1.1,1,1.9s-.2,1.1-.6,1.6c-.4.5-.9.8-1.6.9h0c.8.1,1.5.4,1.9.9.5.5.7,1.1.7,1.8,0,1-.4,1.8-1.1,2.4-.7.6-1.8.9-3,.9h-4.4ZM32.8,52.5v2.7h1.1c.5,0,.9-.1,1.2-.4.3-.3.5-.6.5-1,0-.8-.6-1.2-1.9-1.2h-1ZM32.8,57.1v3h1.4c.6,0,1.1-.1,1.4-.4.3-.3.5-.6.5-1.1s-.2-.8-.5-1.1c-.3-.3-.8-.4-1.4-.4h-1.4Z"/>
    <path class="cls-1" d="M45.5,62.1c-1.6,0-3-.5-4-1.6-1-1-1.5-2.4-1.5-4.1s.5-3.2,1.6-4.3c1-1.1,2.4-1.6,4.1-1.6s2.9.5,3.9,1.6c1,1,1.5,2.4,1.5,4.1s-.5,3.2-1.6,4.3c-1,1.1-2.4,1.6-4.1,1.6ZM45.6,52.7c-.9,0-1.6.3-2.1,1-.5.7-.8,1.5-.8,2.6s.3,2,.8,2.6c.5.6,1.2,1,2.1,1s1.6-.3,2.1-.9c.5-.6.8-1.5.8-2.6s-.3-2.1-.8-2.7c-.5-.6-1.2-1-2.1-1Z"/>
    <path class="cls-1" d="M61,52.7h-3.2v9.2h-2.6v-9.2h-3.2v-2.1h9v2.1Z"/>
    <path class="cls-1" d="M62,61.5v-2.5c.5.4,1,.7,1.5.9s1.1.3,1.6.3.6,0,.8,0c.2,0,.4-.1.6-.2.2-.1.3-.2.4-.4,0-.1.1-.3.1-.5s0-.4-.2-.6c-.1-.2-.3-.3-.5-.5s-.5-.3-.8-.4c-.3-.1-.6-.3-1-.4-.9-.4-1.5-.8-2-1.3s-.7-1.2-.7-1.9.1-1.1.4-1.5c.2-.4.6-.8,1-1,.4-.3.9-.5,1.4-.6s1.1-.2,1.7-.2,1.1,0,1.6.1c.5,0,.9.2,1.3.3v2.3c-.2-.1-.4-.2-.6-.3-.2,0-.5-.2-.7-.2-.2,0-.5-.1-.7-.1-.2,0-.5,0-.7,0s-.6,0-.8,0c-.2,0-.4.1-.6.2-.2,0-.3.2-.4.4,0,.1-.1.3-.1.5s0,.4.2.5c.1.1.2.3.4.4.2.1.4.3.7.4.3.1.6.3.9.4.5.2.9.4,1.2.6s.7.4.9.7.5.6.6.9c.1.3.2.7.2,1.2s-.1,1.2-.4,1.6c-.2.4-.6.8-1,1-.4.3-.9.5-1.4.6-.5.1-1.1.2-1.7.2s-1.2,0-1.8-.2-1-.3-1.5-.5Z"/>
  </g>
</svg>