<?xml version="1.0" encoding="utf-8"?>
<!-- Generator: Adobe Illustrator 17.0.0, SVG Export Plug-In . SVG Version: 6.00 Build 0)  -->
<!DOCTYPE svg PUBLIC "-//W3C//DTD SVG 1.1//EN" "http://www.w3.org/Graphics/SVG/1.1/DTD/svg11.dtd">
<svg version="1.1" id="Layer_1" xmlns="http://www.w3.org/2000/svg" xmlns:xlink="http://www.w3.org/1999/xlink" x="0px" y="0px"
    width="300px" height="50px" viewBox="0 0 300 50" enable-background="new 0 0 300 50" xml:space="preserve">
<path fill="#FFFFFF" d="M19.546,12.207V0H0v48h16.214v-15.36h20.062v-12.206H16.214V12.207H39.092z"/>
<path fill="#FFFFFF" d="M68.261,48h37.924v-12.548H84.474V0H68.261V48z"/>
<path fill="#FFFFFF" d="M171.38,48h16.765L167.12,0h-15.94L130.159,48h16.488l3.23-8.365h18.274L171.38,48z M154.341,27.978l4.671-12.068
    l4.671,12.068H154.341z"/>
<path fill="#FFFFFF" d="M243.564,48h17.312l-10.097-14.812c5.77-2.949,9.069-8.161,9.069-15.086c0-11.108-8.518-18.102-21.916-18.102
    h-23.152v48h16.214v-12.068h4.396L243.564,48z M243.494,18.102c0,3.498-2.128,5.622-6.593,5.622h-5.909V12.480h5.909
    C241.366,12.480,243.494,14.604,243.494,18.102z"/>
<path fill="#FFFFFF" d="M305.954,35.793V29.686h20.336V17.828h-20.336V12.207h23.152V0h-39.092v48h32.804v-12.207H305.954z"/>
<path fill="#FFFFFF" d="M0,48h12.214v-14.768H24.428V29.686H12.214V17.828H24.428V12.207H0V48z"/>
<path fill="#FFFFFF" d="M55.06,22.793v-3.154h20.336V12.207H55.06V6.103h23.152V0h-39.092v48h39.092v-12.207H55.06z"/>
<path fill="#FFFFFF" d="M121.69,48v-6.034h2.198l5.049,7.406H112.18V0h8.656c6.699,0,10.958,3.497,10.958,9.051
    c0,3.462-1.649,6.069-4.533,7.543L121.69,48z"/>
</svg>